<?xml version="1.0" standalone="no"?>
<!DOCTYPE svg PUBLIC "-//W3C//DTD SVG 20010904//EN"
 "http://www.w3.org/TR/2001/REC-SVG-20010904/DTD/svg10.dtd">
<svg version="1.0" xmlns="http://www.w3.org/2000/svg"
 width="1182.000000pt" height="591.000000pt" viewBox="0 0 1182.000000 591.000000"
 preserveAspectRatio="xMidYMid meet">

<g transform="translate(0.000000,591.000000) scale(0.100000,-0.100000)"
fill="#000000" stroke="none">
<path d="M0 4998 l0 -913 36 -60 c381 -632 388 -1458 19 -2105 l-55 -96 0
-907 0 -907 1960 0 c1078 0 1963 1 1968 3 4 1 7 91 7 200 0 108 2 197 4 197 2
0 45 -16 95 -36 447 -178 849 -281 1326 -340 181 -22 718 -31 917 -15 532 42
1090 177 1536 370 27 12 50 21 53 21 2 0 5 -90 6 -200 l3 -200 1968 -3 1967
-2 0 911 0 911 -51 89 c-205 354 -306 806 -270 1209 29 322 130 644 279 889
l42 68 0 914 0 914 -5905 0 -5905 0 0 -912z m3868 532 l2 -315 -76 -38 c-42
-21 -78 -36 -81 -34 -2 3 -4 125 -3 271 l1 266 -1741 0 -1740 0 0 -768 c0
-439 4 -772 9 -778 14 -14 106 -200 144 -289 68 -159 123 -362 153 -565 22
-142 25 -472 5 -610 -39 -289 -121 -549 -246 -788 l-65 -122 0 -763 0 -762
1737 2 1738 3 3 270 2 270 128 -64 c499 -249 1081 -413 1651 -462 254 -22 767
-15 987 14 401 54 795 153 1134 287 122 48 359 155 430 194 l55 30 5 -269 5
-270 1738 -3 1737 -2 0 762 0 761 -74 146 c-117 231 -193 470 -232 736 -21
142 -24 463 -5 600 39 290 119 543 247 789 l64 123 0 764 0 764 -1737 -2
-1738 -3 -2 -264 c-1 -145 -4 -265 -6 -268 -3 -2 -39 13 -81 34 l-76 37 0 318
0 318 1903 -3 1902 -2 3 -866 2 -865 -58 -105 c-116 -208 -198 -442 -244 -692
-19 -105 -23 -156 -22 -362 0 -177 4 -265 17 -335 47 -272 147 -550 271 -756
l36 -59 0 -867 0 -868 -1905 0 -1905 0 -2 208 c-3 203 -3 207 -24 210 -12 2
-83 -22 -157 -52 -627 -257 -1290 -380 -1962 -363 -262 7 -391 18 -625 53
-383 57 -751 160 -1144 320 -60 25 -119 44 -130 42 -20 -3 -21 -9 -24 -210
l-2 -208 -1905 0 -1905 0 0 868 1 868 35 59 c188 312 294 704 294 1086 0 391
-88 732 -277 1070 l-53 96 0 860 c0 473 3 863 7 866 3 4 859 6 1902 5 l1896
-3 3 -315z m1310 311 c9 -5 12 -25 10 -62 l-3 -54 -547 -3 -548 -2 0 -244 0
-244 88 34 c132 52 353 122 487 154 259 61 504 105 516 93 11 -12 14 -102 4
-112 -6 -5 -73 -21 -150 -36 -326 -62 -716 -186 -992 -316 -57 -26 -103 -45
-103 -41 0 4 0 191 0 417 0 312 3 411 13 417 16 10 1208 10 1225 -1z m1361 -5
c7 -8 11 -36 9 -63 l-3 -48 -567 -3 -568 -2 0 -86 0 -87 61 7 c225 26 635 24
914 -4 163 -17 165 -18 165 -79 0 -27 -4 -53 -10 -56 -5 -3 -78 2 -162 11
-202 23 -716 25 -903 4 -71 -8 -148 -14 -170 -15 l-40 0 -3 204 c-2 142 1 208
9 217 17 21 1251 21 1268 0z m1128 -13 c66 -36 88 -75 88 -159 0 -66 -3 -75
-33 -113 -29 -37 -31 -42 -15 -47 111 -34 168 -117 161 -235 -4 -80 -38 -136
-104 -175 l-42 -25 -58 27 c-228 102 -629 222 -919 275 -66 12 -121 23 -123
24 -2 2 -3 101 -2 221 0 160 4 220 13 226 7 5 233 7 502 6 485 -3 490 -3 532
-25z m-4255 -568 l3 -364 107 64 c59 36 110 65 112 65 3 0 7 -58 8 -128 l3
-128 115 64 c549 306 1124 481 1780 543 180 17 593 14 785 -5 430 -44 870
-152 1255 -311 127 -52 456 -214 535 -263 l50 -31 3 129 c1 72 5 130 8 130 2
0 53 -29 112 -65 l107 -64 3 364 2 365 1558 -2 1557 -3 3 -717 2 -717 -70
-141 c-120 -237 -196 -473 -237 -730 -25 -162 -25 -549 0 -705 44 -267 110
-472 228 -712 l79 -162 0 -715 0 -716 -1560 0 -1560 0 0 361 c0 285 -3 360
-12 356 -7 -3 -58 -32 -113 -65 l-100 -60 -3 129 c-1 71 -4 129 -7 129 -2 0
-52 -28 -112 -62 -429 -244 -932 -419 -1453 -504 -289 -47 -704 -66 -995 -45
-660 48 -1298 238 -1851 552 -57 32 -106 59 -109 59 -2 0 -6 -58 -7 -129 l-3
-130 -105 64 c-58 36 -108 65 -112 65 -5 0 -8 -162 -8 -360 l0 -360 -1560 0
-1560 0 0 719 0 720 48 88 c126 231 216 500 257 763 22 144 31 458 16 601 -33
312 -115 589 -258 867 l-63 122 0 713 c0 393 3 717 7 720 3 4 705 7 1560 7
l1553 0 2 -365z m228 103 l0 -263 -71 -40 c-39 -22 -75 -41 -80 -43 -5 -2 -9
124 -9 302 l0 306 80 0 80 0 0 -262z m4690 -44 l0 -305 -80 43 -80 43 0 263 0
262 80 0 80 0 0 -306z m-4460 -266 l-1 -93 -52 -25 c-29 -13 -64 -33 -79 -43
l-28 -18 0 98 0 99 73 36 c39 20 75 37 80 37 4 1 7 -41 7 -91z m4154 55 l75
-37 3 -89 c2 -49 0 -91 -4 -93 -4 -3 -41 12 -82 33 l-76 38 0 93 c0 50 2 92 5
92 2 0 38 -17 79 -37z m-3879 -4276 c447 -192 891 -303 1395 -347 160 -15 567
-15 735 0 593 50 1162 214 1683 485 l142 74 0 -95 0 -95 -182 -88 c-549 -265
-1087 -407 -1713 -452 -193 -14 -591 -6 -790 16 -558 60 -1087 215 -1583 464
l-122 61 0 94 0 95 153 -78 c83 -43 211 -104 282 -134z m-552 18 l47 -27 0
-259 0 -259 -80 0 -80 0 0 306 0 306 33 -20 c17 -11 53 -32 80 -47z m4737
-240 l0 -305 -80 0 -80 0 0 259 0 258 78 46 c42 25 78 46 80 46 1 1 2 -136 2
-304z"/>
<path d="M6740 5640 l0 -80 426 0 426 0 19 23 c28 34 25 91 -7 116 -26 20 -37
21 -445 21 l-419 0 0 -80z"/>
<path d="M7170 5396 c145 -43 282 -90 433 -150 64 -26 121 -44 127 -41 5 3 14
23 20 43 13 52 -2 100 -45 142 l-36 35 -307 2 -307 2 115 -33z"/>
<path d="M6755 4262 c-11 -2 -25 -12 -31 -21 -12 -15 -16 -15 -62 2 -27 9 -64
17 -80 17 -39 0 -72 -33 -72 -72 0 -23 4 -28 24 -28 16 0 27 7 31 20 8 25 18
25 88 1 74 -26 111 -15 128 36 12 38 5 52 -26 45z"/>
<path d="M10696 4245 c-12 -18 -16 -19 -57 -6 -114 34 -159 21 -159 -46 0 -26
4 -33 19 -33 10 0 25 10 33 22 l15 23 68 -22 c92 -30 135 -11 135 61 0 31 -34
32 -54 1z"/>
<path d="M1087 4106 c-97 -36 -157 -108 -178 -215 -24 -123 10 -250 83 -317
55 -49 95 -64 178 -64 109 0 178 38 221 122 29 56 25 65 -33 83 -28 8 -53 15
-54 15 -1 0 -8 -16 -14 -35 -27 -81 -127 -112 -201 -62 -83 55 -92 266 -15
343 61 61 170 50 206 -21 8 -16 16 -32 17 -33 3 -7 113 21 113 29 0 40 -44 98
-104 136 -48 31 -161 41 -219 19z"/>
<path d="M1698 4110 c-52 -13 -109 -51 -142 -94 -45 -59 -58 -114 -54 -219 2
-77 8 -101 31 -147 50 -99 128 -143 252 -142 185 0 294 125 283 325 -7 131
-58 215 -158 260 -51 23 -155 31 -212 17z m176 -118 c49 -29 71 -84 71 -182 0
-68 -4 -92 -21 -120 -63 -108 -215 -109 -277 -2 -24 41 -34 151 -18 207 29
108 147 154 245 97z"/>
<path d="M2957 4110 c-57 -15 -90 -35 -131 -80 -61 -68 -78 -120 -74 -225 4
-112 39 -192 106 -242 103 -78 277 -75 410 7 l32 20 0 120 0 120 -130 0 -130
0 0 -50 0 -50 70 0 70 0 0 -39 c0 -36 -3 -40 -45 -60 -62 -29 -141 -28 -185 2
-53 35 -73 79 -78 168 -4 65 -1 85 18 123 26 55 63 83 119 92 56 9 125 -18
148 -58 17 -29 20 -30 72 -24 30 4 57 8 58 10 2 2 1 15 -2 29 -10 38 -72 105
-114 123 -44 19 -163 27 -214 14z"/>
<path d="M4735 4102 c-59 -21 -83 -36 -119 -79 -47 -56 -68 -117 -68 -203 -1
-139 51 -234 157 -285 98 -48 261 -31 362 37 l33 23 0 118 0 117 -131 0 -130
0 3 -47 3 -48 68 -3 67 -3 0 -38 c0 -34 -4 -39 -44 -59 -60 -30 -141 -30 -187
1 -52 34 -79 97 -79 182 0 53 5 82 23 115 52 104 203 120 263 28 18 -28 21
-29 73 -23 30 3 57 8 60 10 10 10 -34 88 -66 115 -64 57 -192 75 -288 42z"/>
<path d="M5965 4103 c-59 -21 -119 -78 -147 -141 -13 -28 -22 -77 -26 -127 -7
-117 15 -183 84 -252 28 -29 64 -55 79 -59 22 -5 25 -11 21 -30 -6 -21 -3 -23
41 -26 42 -3 48 -6 51 -27 5 -32 -12 -41 -80 -41 -55 0 -58 -1 -58 -25 0 -24
3 -25 60 -25 128 0 195 63 140 133 l-20 25 29 7 c64 14 139 90 156 156 6 24 3
27 -45 43 -29 9 -53 16 -55 14 -1 -2 -12 -21 -23 -44 -27 -53 -60 -74 -118
-74 -99 0 -153 89 -141 231 9 104 49 161 122 175 61 11 111 -15 150 -80 9 -15
16 -16 63 -5 50 12 53 14 47 38 -9 39 -57 93 -105 120 -56 32 -155 38 -225 14z
m115 -599 c0 -2 -12 -4 -26 -4 -14 0 -23 4 -20 9 6 8 46 4 46 -5z"/>
<path d="M7166 4104 c-65 -21 -135 -92 -160 -162 -14 -42 -17 -73 -14 -150 3
-84 8 -104 32 -150 51 -92 128 -134 246 -135 126 -1 215 53 262 157 32 71 32
228 0 296 -26 56 -84 114 -136 135 -57 24 -170 28 -230 9z m186 -104 c64 -30
102 -152 79 -256 -22 -98 -79 -140 -176 -132 -95 8 -145 78 -145 203 0 106 42
178 115 198 27 8 97 0 127 -13z"/>
<path d="M8044 4104 c-129 -47 -197 -189 -173 -360 11 -77 45 -142 97 -182 50
-39 93 -52 174 -52 74 0 121 17 170 63 25 23 68 96 68 115 0 7 -94 42 -113 42
-3 0 -8 -13 -12 -30 -3 -16 -22 -43 -41 -60 -29 -25 -43 -30 -84 -30 -41 0
-55 5 -84 31 -43 37 -56 79 -56 179 1 105 24 154 86 181 73 33 149 10 174 -51
14 -34 10 -34 75 -16 40 10 49 16 47 32 -6 37 -52 93 -96 119 -57 34 -169 43
-232 19z"/>
<path d="M9429 4105 c-49 -16 -96 -55 -110 -93 -27 -69 2 -154 63 -192 32 -19
54 -27 181 -64 89 -26 108 -73 52 -126 -19 -18 -36 -23 -78 -24 -67 0 -103 21
-126 75 -10 24 -21 37 -29 34 -8 -3 -31 -5 -53 -5 -35 0 -39 -3 -39 -25 0 -14
9 -42 19 -63 42 -82 107 -115 226 -114 149 1 229 67 228 188 -1 98 -47 140
-205 186 -134 39 -160 63 -123 112 10 14 31 21 70 24 62 5 98 -12 117 -54 10
-21 17 -24 70 -24 l60 0 -7 32 c-12 52 -47 97 -94 119 -55 28 -159 34 -222 14z"/>
<path d="M2170 3813 l0 -298 52 1 53 2 5 188 5 189 34 -55 c19 -30 70 -113
114 -185 43 -71 81 -132 83 -134 2 -3 73 -4 112 -2 9 1 12 67 12 296 l0 295
-55 0 -55 0 -2 -197 -3 -198 -29 45 c-15 25 -70 113 -120 195 l-91 150 -58 3
-57 3 0 -298z"/>
<path d="M3412 3815 l3 -297 58 -2 57 -1 0 123 0 122 44 0 c58 0 77 -17 164
-144 l67 -99 68 -1 c47 -1 66 2 63 11 -13 34 -123 192 -153 219 l-34 32 27 6
c107 27 153 155 92 254 -35 56 -70 65 -276 70 l-182 4 2 -297z m321 184 c30
-16 37 -28 37 -71 0 -56 -24 -68 -142 -68 l-98 0 0 75 0 75 91 0 c50 0 100 -5
112 -11z"/>
<path d="M4010 3813 l0 -298 225 0 225 0 0 47 0 48 -162 2 -163 3 -3 83 -3 82
151 0 151 0 -3 48 -3 47 -147 3 -148 3 0 64 0 65 160 0 160 0 0 50 0 50 -220
0 -220 0 0 -297z"/>
<path d="M5362 4058 c-11 -29 -61 -158 -111 -287 -50 -128 -91 -240 -91 -248
0 -10 6 -13 16 -9 9 3 35 6 59 6 l43 0 24 65 23 65 120 0 121 0 24 -64 24 -64
60 -4 c34 -2 63 -3 65 -1 2 1 -49 135 -114 298 l-118 295 -63 0 -63 0 -19 -52z
m123 -197 c19 -51 35 -97 35 -102 0 -5 -34 -9 -75 -9 -54 0 -75 4 -75 13 0 7
13 46 28 87 16 41 32 84 36 94 3 10 8 17 11 15 2 -3 20 -47 40 -98z"/>
<path d="M6573 4093 c-3 -10 -52 -138 -109 -286 -57 -147 -105 -273 -107 -279
-1 -7 6 -12 16 -11 9 0 37 1 61 2 l44 1 24 65 23 65 121 0 120 0 23 -65 c13
-36 28 -65 35 -65 6 -1 35 -2 64 -3 28 -1 52 0 52 2 0 2 -53 136 -117 298
l-117 293 -63 0 c-52 0 -65 -3 -70 -17z m112 -232 c19 -51 35 -97 35 -102 0
-5 -36 -9 -79 -9 l-79 0 34 97 c36 100 44 117 50 111 1 -2 19 -46 39 -97z"/>
<path d="M8484 4095 c3 -9 6 -143 6 -298 l0 -282 55 0 55 0 0 123 0 122 44 0
c59 0 86 -24 166 -144 l63 -96 53 0 c29 0 59 -3 68 -6 9 -3 16 -2 16 4 0 22
-98 170 -141 213 l-46 47 38 11 c41 12 95 67 105 107 10 41 -2 110 -25 143
-42 59 -67 65 -275 69 -174 4 -188 3 -182 -13z m341 -110 c30 -30 32 -64 4
-99 -20 -25 -24 -26 -125 -26 l-104 0 0 68 c0 38 3 72 7 75 3 4 49 7 100 7 86
0 96 -2 118 -25z"/>
<path d="M9080 3809 c0 -270 2 -301 16 -295 9 3 36 6 60 6 l44 0 0 295 0 295
-60 0 -60 0 0 -301z"/>
<path d="M9830 4060 l0 -50 85 0 85 0 2 -247 3 -246 58 -1 57 -1 0 248 0 247
90 0 90 0 0 50 0 50 -235 0 -235 0 0 -50z"/>
<path d="M10547 4103 c-7 -10 -218 -551 -224 -573 -6 -22 118 -21 125 0 3 8
14 39 24 68 l20 53 120 -3 121 -3 21 -57 c12 -31 25 -60 28 -64 6 -5 96 -9
122 -5 3 1 -7 29 -21 64 -14 34 -49 123 -78 197 -30 74 -71 178 -93 230 l-40
95 -60 3 c-33 2 -63 -1 -65 -5z m102 -236 c19 -50 36 -98 39 -104 3 -10 -17
-13 -78 -13 -61 0 -81 3 -78 13 37 104 74 197 78 197 3 0 20 -42 39 -93z"/>
<path d="M6091 3178 c-69 -19 -126 -70 -163 -147 -32 -65 -33 -224 -1 -292 51
-112 146 -165 282 -157 120 7 191 54 240 158 35 76 36 209 1 288 -28 64 -93
124 -157 146 -51 18 -149 20 -202 4z m179 -110 c66 -45 75 -68 75 -183 0 -89
-3 -107 -21 -132 -97 -131 -278 -77 -298 89 -13 104 24 199 89 232 46 23 116
20 155 -6z"/>
<path d="M5330 2885 l0 -295 55 0 55 0 2 189 3 189 115 -189 115 -188 63 -1
62 0 0 295 0 295 -55 0 -55 0 -2 -197 -3 -198 -120 195 -120 195 -58 3 -57 3
0 -296z"/>
<path d="M6289 2240 c-85 -45 -116 -128 -78 -206 11 -24 33 -53 48 -63 27 -19
110 -49 198 -71 52 -13 73 -33 73 -71 0 -55 -65 -89 -147 -76 -43 7 -69 29
-85 73 -11 30 -16 34 -48 34 -64 0 -81 -9 -73 -39 29 -124 122 -181 276 -168
132 11 201 79 195 192 -6 104 -47 139 -213 185 -98 27 -125 43 -125 75 0 35
41 59 102 58 52 -1 83 -20 99 -60 7 -20 16 -23 64 -23 l55 0 0 32 c0 46 -37
95 -94 123 -65 33 -190 35 -247 5z"/>
<path d="M4400 1954 l0 -296 193 4 c179 3 194 4 229 26 95 59 103 210 13 263
-38 23 -43 34 -20 43 26 10 55 69 55 112 0 51 -33 103 -80 126 -29 14 -66 17
-212 18 l-178 0 0 -296z m335 185 c26 -26 28 -63 5 -92 -21 -26 -25 -27 -121
-27 l-99 0 0 63 c0 35 3 67 8 71 12 14 192 0 207 -15z m-6 -230 c54 -19 67
-84 26 -124 -23 -23 -31 -25 -130 -25 l-105 0 0 80 0 80 89 0 c48 0 103 -5
120 -11z"/>
<path d="M5000 1955 l0 -295 60 0 60 0 0 125 0 125 38 0 c65 -1 91 -26 186
-173 l50 -77 68 0 c37 0 68 2 68 5 0 16 -103 168 -141 208 l-47 48 25 10 c13
5 28 9 32 9 19 0 69 59 81 93 27 86 -20 185 -98 207 -20 5 -115 10 -209 10
l-173 0 0 -295z m342 178 c23 -28 28 -50 17 -82 -14 -39 -51 -51 -155 -51
l-84 0 0 75 0 75 103 0 c87 0 106 -3 119 -17z"/>
<path d="M5762 2223 c-99 -250 -170 -432 -192 -490 l-28 -73 63 0 64 0 21 58
c11 31 23 63 25 70 3 9 36 12 118 12 80 0 118 -4 125 -12 5 -7 18 -39 28 -70
l19 -58 63 0 c34 0 62 4 62 9 0 9 -115 300 -192 484 l-40 97 -63 0 c-59 0 -63
-2 -73 -27z m117 -221 c21 -56 36 -103 33 -106 -3 -4 -38 -6 -79 -6 -83 0 -83
-1 -53 80 11 30 28 74 36 98 9 24 18 41 21 39 2 -3 21 -50 42 -105z"/>
<path d="M6750 1955 l0 -295 60 0 60 0 0 295 0 295 -60 0 -60 0 0 -295z"/>
<path d="M6990 1955 l0 -295 210 0 210 0 0 50 0 50 -150 0 -150 0 0 245 0 245
-60 0 -60 0 0 -295z"/>
</g>
</svg>
